<?xml version="1.0" standalone="no"?>
<!DOCTYPE svg PUBLIC "-//W3C//DTD SVG 20010904//EN"
 "http://www.w3.org/TR/2001/REC-SVG-20010904/DTD/svg10.dtd">
<svg version="1.0" xmlns="http://www.w3.org/2000/svg"
 width="900.000000pt" height="900.000000pt" viewBox="0 0 900.000000 900.000000"
 preserveAspectRatio="xMidYMid meet">

<g transform="translate(0.000000,900.000000) scale(0.100000,-0.100000)"
fill="#000000" stroke="none">
<path d="M0 4500 l0 -4500 4500 0 4500 0 0 4500 0 4500 -4500 0 -4500 0 0
-4500z m6795 1265 l0 -1030 -1030 0 -1030 0 -3 1020 c-1 561 0 1026 3 1033 3
10 215 12 1032 10 l1028 -3 0 -1030z m0 -2530 l0 -1030 -1030 0 -1030 0 -3
1020 c-1 561 0 1026 3 1033 3 10 215 12 1032 10 l1028 -3 0 -1030z m-2535 -1
l0 -1025 -587 4 c-552 4 -593 5 -673 24 -294 72 -545 271 -678 538 -104 209
-112 272 -112 953 l0 532 1025 0 1025 0 0 -1026z"/>
</g>
</svg>
