<?xml version="1.0" standalone="no"?>
<!DOCTYPE svg PUBLIC "-//W3C//DTD SVG 20010904//EN"
 "http://www.w3.org/TR/2001/REC-SVG-20010904/DTD/svg10.dtd">
<svg version="1.0" xmlns="http://www.w3.org/2000/svg"
 width="990.000000pt" height="500.000000pt" viewBox="0 0 990.000000 500.000000"
 preserveAspectRatio="xMidYMid meet">

<g transform="translate(0.000000,500.000000) scale(0.100000,-0.100000)"
fill="#000000" stroke="none">
<path d="M0 2500 l0 -2500 4950 0 4950 0 0 2500 0 2500 -4950 0 -4950 0 0
-2500z m7395 715 c219 -39 406 -216 455 -430 28 -120 10 -265 -46 -380 -137
-282 -475 -394 -764 -253 -87 43 -203 159 -247 248 -34 70 -63 192 -63 262 1
117 55 261 133 356 88 106 200 172 335 196 98 18 102 18 197 1z m-5557 -257
c1 -131 -1 -238 -5 -238 -20 0 -449 -1 -460 0 -10 0 -13 54 -13 233 0 129 3
237 7 241 4 3 110 5 237 4 l231 -3 3 -237z m1103 201 c288 -138 344 -511 108
-723 -92 -83 -197 -116 -365 -116 l-111 0 -5 -63 c-9 -110 -46 -142 -167 -142
l-76 0 -3 543 -2 543 272 -3 273 -3 76 -36z m606 -283 c1 -175 4 -320 6 -323
3 -2 112 135 242 304 131 169 247 316 258 326 17 15 36 17 131 15 l111 -3 3
-490 c2 -459 1 -492 -16 -524 -28 -52 -73 -72 -157 -69 l-70 3 -3 318 c-2 335
-5 348 -46 289 -46 -64 -456 -590 -469 -601 -10 -8 -50 -11 -123 -9 l-109 3
-2 495 c-2 381 0 501 10 520 7 13 28 35 47 48 29 20 44 22 110 20 l75 -3 2
-319z m1700 302 c80 -29 162 -112 192 -193 32 -84 26 -190 -14 -269 l-28 -55
29 -63 c25 -55 29 -75 29 -153 0 -74 -4 -98 -24 -137 -32 -66 -104 -136 -170
-167 -56 -26 -57 -26 -372 -29 -353 -4 -371 -2 -410 62 -18 29 -19 59 -19 522
0 270 3 494 7 497 3 4 167 7 364 7 343 0 361 -1 416 -22z m1501 -58 c3 -86 -8
-114 -57 -147 -33 -22 -41 -23 -272 -23 l-239 0 0 -372 c0 -347 -1 -375 -19
-404 -10 -17 -34 -38 -54 -47 -41 -20 -147 -23 -165 -5 -9 9 -12 142 -12 538
0 290 3 530 7 533 4 4 187 6 407 5 l401 -3 3 -75z m1466 63 c4 -9 6 -193 6
-410 -1 -216 1 -397 5 -403 7 -12 174 -13 192 -2 10 6 13 105 15 418 l3 409
120 0 120 0 3 -409 c2 -313 5 -412 15 -418 16 -10 168 -10 184 0 10 6 13 105
15 418 l3 409 75 3 c66 2 81 0 110 -20 19 -13 40 -35 47 -48 10 -19 12 -139
10 -520 l-2 -495 -530 -3 c-488 -2 -533 -1 -564 15 -75 39 -72 11 -72 558 1
270 1 496 1 503 0 9 31 12 119 12 102 0 120 -2 125 -17z m-6376 -825 l2 -238
-240 0 -240 0 0 233 c0 129 3 237 7 241 4 3 110 5 237 4 l231 -3 3 -237z
m-600 0 l-3 -233 -145 1 c-167 0 -194 8 -259 79 -52 56 -61 94 -61 253 l0 132
235 0 235 0 -2 -232z m2230 -482 c3 -34 6 -37 25 -31 57 18 65 17 100 -15 43
-38 53 -75 33 -124 -16 -37 -72 -80 -94 -71 -8 3 -25 8 -38 11 -22 6 -24 3
-24 -31 0 -29 -3 -36 -17 -33 -12 2 -18 13 -18 32 0 33 -15 42 -44 26 -29 -15
-86 11 -105 49 -25 48 -20 96 13 133 28 32 50 37 116 26 16 -2 19 2 17 24 -2
15 0 32 3 38 13 21 30 3 33 -34z m-665 -47 c12 -15 17 -39 17 -83 0 -35 5 -67
12 -74 18 -18 -3 -35 -32 -24 -15 5 -37 4 -61 -5 -21 -7 -46 -10 -56 -6 -29
10 -63 45 -63 64 0 24 45 57 89 65 59 10 71 15 71 29 0 31 -67 33 -104 4 -36
-29 -54 -12 -26 24 33 42 120 46 153 6z m315 5 c13 -9 30 -32 39 -51 12 -31
13 -41 1 -71 -24 -63 -71 -85 -145 -67 -33 7 -33 7 -33 -29 0 -30 -3 -37 -17
-34 -16 3 -18 14 -16 88 1 47 3 104 3 128 0 39 2 42 28 43 15 0 36 4 47 9 24
11 62 4 93 -16z m872 11 c40 -21 60 -53 60 -98 0 -117 -157 -157 -207 -52 -22
46 -46 43 -53 -8 -3 -21 -9 -38 -15 -37 -15 0 -13 192 3 198 8 2 12 -8 12 -32
0 -52 18 -55 59 -9 50 56 86 66 141 38z m686 -4 c17 -10 36 -33 44 -50 20 -50
3 -61 -91 -61 -62 0 -79 -3 -79 -14 0 -20 39 -46 68 -46 13 0 38 11 56 25 28
21 35 23 39 10 8 -20 -40 -64 -79 -71 -37 -7 -85 15 -108 48 -23 33 -20 100 5
132 38 48 93 58 145 27z m314 4 c41 -21 60 -53 60 -103 0 -65 -55 -114 -114
-103 -6 1 -22 5 -38 8 -25 5 -28 3 -28 -23 0 -41 -13 -59 -28 -41 -8 9 -11 56
-9 138 l2 124 28 -3 c15 -2 35 2 45 7 24 15 49 13 82 -4z m1921 -8 c18 -12 39
-39 47 -59 13 -33 12 -41 -4 -75 -12 -23 -34 -46 -55 -57 -32 -18 -41 -18 -78
-7 -70 21 -100 95 -66 161 30 59 99 75 156 37z m327 -11 c32 -30 35 -35 19
-42 -12 -4 -26 1 -41 15 -32 30 -79 28 -105 -5 -28 -35 -26 -69 4 -99 32 -33
74 -33 105 0 26 28 50 33 50 11 0 -18 -55 -64 -86 -72 -60 -15 -124 42 -124
111 0 102 103 149 178 81z m675 -6 c30 -34 36 -75 11 -84 -9 -3 -46 -6 -83 -6
-37 0 -71 -3 -74 -7 -4 -3 3 -17 15 -30 27 -28 67 -30 101 -3 14 11 30 20 36
20 20 0 11 -28 -14 -49 -100 -78 -228 27 -170 139 35 67 127 77 178 20z m1156
25 c35 -18 41 -32 41 -104 0 -31 5 -62 12 -69 19 -19 -4 -37 -31 -23 -16 9
-26 9 -42 0 -55 -29 -144 6 -137 55 4 27 64 66 102 66 40 0 61 14 53 34 -9 24
-69 20 -101 -5 -20 -16 -30 -19 -38 -11 -9 9 -6 17 8 33 36 40 86 49 133 24z
m-6561 -97 c2 -83 0 -98 -13 -98 -17 0 -17 1 -16 85 2 80 -4 87 -70 83 l-54
-3 -1 -75 c0 -81 -9 -109 -27 -91 -14 14 -18 159 -5 184 8 15 21 17 96 15 l87
-3 3 -97z m1727 32 c19 -38 39 -70 44 -70 6 0 25 30 44 68 24 47 40 67 53 67
17 0 19 -9 19 -95 0 -78 -3 -95 -15 -95 -12 0 -14 11 -12 53 3 57 -11 69 -30
25 -20 -46 -48 -83 -64 -83 -8 0 -26 25 -40 55 -15 30 -30 55 -35 55 -5 0 -9
-25 -9 -56 0 -47 -3 -55 -17 -52 -15 3 -19 16 -21 78 -4 93 2 120 28 120 14 0
29 -19 55 -70z m955 -6 c0 -35 4 -64 9 -64 5 0 32 32 61 70 33 44 59 70 71 70
17 0 19 -8 19 -100 0 -82 -3 -100 -15 -100 -12 0 -15 14 -15 65 0 36 -4 65 -9
65 -5 0 -31 -29 -57 -65 -47 -63 -67 -80 -85 -69 -10 6 -13 187 -3 197 16 15
24 -9 24 -69z m455 54 c2 -13 4 -57 2 -98 -2 -62 -5 -75 -19 -78 -14 -3 -18 4
-18 32 0 63 -48 61 -93 -5 -20 -29 -32 -38 -39 -31 -7 7 -5 20 7 40 18 29 17
31 -3 57 -27 34 -28 59 -2 85 16 16 33 20 90 20 64 0 70 -2 75 -22z m345 -54
c0 -35 4 -64 10 -64 5 0 21 17 34 38 45 69 81 106 99 99 14 -5 17 -22 17 -100
0 -98 -4 -114 -27 -96 -8 7 -13 33 -13 70 0 33 -4 59 -8 59 -5 0 -26 -25 -47
-56 -40 -57 -72 -87 -87 -78 -9 6 -11 188 -2 197 16 15 24 -9 24 -69z m508 38
c2 -18 8 -32 14 -32 5 0 28 16 51 35 41 35 81 47 71 22 -3 -8 -18 -24 -34 -36
-17 -12 -30 -26 -30 -32 0 -6 18 -31 40 -56 39 -44 51 -73 30 -73 -11 0 -31
19 -73 70 -35 42 -60 32 -65 -24 -3 -29 -7 -36 -20 -34 -14 3 -18 18 -20 87
-2 47 0 91 3 98 9 24 30 8 33 -25z m950 -32 c18 -36 38 -66 45 -67 7 -2 25 26
41 62 25 57 56 88 72 72 3 -2 8 -43 11 -90 4 -63 2 -91 -7 -102 -20 -24 -30
-8 -30 51 0 30 -4 54 -8 54 -4 0 -20 -25 -35 -56 -34 -69 -52 -68 -90 4 -32
60 -48 60 -40 2 6 -40 -10 -75 -28 -64 -11 6 -12 187 -2 198 17 17 40 -4 71
-64z m762 55 c0 -8 -6 -15 -12 -16 -7 -1 -22 -2 -33 -3 -18 -1 -21 -10 -25
-80 -3 -51 -10 -81 -17 -84 -10 -3 -13 16 -13 70 0 82 -9 98 -52 98 -18 0 -28
5 -28 15 0 12 17 15 90 15 73 0 90 -3 90 -15z m138 -59 c2 -37 7 -66 11 -64 5
2 30 32 57 68 32 42 56 65 69 65 18 0 20 -8 23 -97 3 -93 2 -98 -18 -98 -18 0
-20 6 -20 65 0 36 -4 65 -8 65 -5 0 -26 -25 -47 -56 -78 -113 -105 -106 -105
26 0 47 3 90 7 94 17 17 28 -6 31 -68z m310 31 c4 -43 11 -45 41 -13 29 31 88
62 98 52 4 -4 -9 -23 -30 -41 l-38 -33 45 -56 c26 -31 46 -60 46 -66 0 -24
-32 -6 -74 42 -39 44 -49 51 -64 42 -10 -6 -18 -26 -20 -48 -2 -23 -8 -36 -18
-36 -8 0 -14 3 -15 8 -1 12 -1 166 0 180 2 29 26 3 29 -31z"/>
<path d="M7216 2954 c-228 -72 -300 -348 -135 -513 56 -56 120 -85 201 -89 99
-6 159 17 230 90 48 48 61 69 79 128 34 114 7 218 -79 303 -83 81 -197 113
-296 81z"/>
<path d="M2572 2763 l3 -188 121 0 c114 0 123 2 161 27 116 77 120 224 10 312
-38 30 -41 31 -168 34 l-129 4 2 -189z"/>
<path d="M4714 2937 c-3 -8 -4 -45 -2 -83 l3 -69 217 -3 216 -2 31 26 c40 33
43 83 6 119 l-24 25 -221 0 c-176 0 -222 -3 -226 -13z"/>
<path d="M4710 2450 c0 -75 1 -80 23 -85 13 -4 114 -5 224 -3 197 3 202 3 227
27 35 33 35 83 1 116 l-24 25 -226 0 -225 0 0 -80z"/>
<path d="M3328 1803 c-25 -30 -29 -52 -14 -88 18 -42 55 -55 91 -31 35 23 36
97 3 120 -29 21 -61 20 -80 -1z"/>
<path d="M3490 1800 c-11 -11 -20 -33 -20 -49 0 -37 35 -81 65 -81 29 0 65 44
65 80 0 32 -37 70 -68 70 -12 0 -31 -9 -42 -20z"/>
<path d="M2708 1733 c-37 -6 -54 -28 -38 -48 27 -32 110 -6 110 36 0 19 -11
21 -72 12z"/>
<path d="M3001 1794 c-28 -35 -26 -69 4 -99 48 -49 119 -19 119 50 0 70 -81
102 -123 49z"/>
<path d="M3890 1800 c-44 -44 -13 -130 48 -130 54 1 91 53 71 101 -21 51 -82
66 -119 29z"/>
<path d="M4567 1802 c-10 -10 -17 -22 -17 -25 0 -4 29 -7 65 -7 50 0 65 3 65
15 0 35 -85 48 -113 17z"/>
<path d="M4891 1794 c-12 -15 -21 -38 -21 -51 0 -32 42 -73 75 -73 33 0 75 42
75 75 0 14 -11 37 -25 50 -33 34 -77 33 -104 -1z"/>
<path d="M6800 1800 c-28 -28 -26 -81 3 -108 49 -46 121 -14 121 53 0 66 -78
101 -124 55z"/>
<path d="M7788 1809 c-10 -5 -18 -17 -18 -24 0 -12 15 -15 65 -15 68 0 79 9
43 34 -26 18 -65 20 -90 5z"/>
<path d="M8998 1733 c-37 -6 -54 -28 -38 -48 27 -32 110 -6 110 36 0 19 -11
21 -72 12z"/>
<path d="M5517 1813 c-12 -3 -17 -12 -15 -26 3 -19 10 -22 56 -25 49 -3 52 -2
52 21 0 34 -35 45 -93 30z"/>
</g>
</svg>
